<svg fill="none" height="24" viewBox="0 0 24 24" width="24" xmlns="http://www.w3.org/2000/svg"><g stroke="#141b34" stroke-linejoin="round"><path d="m12 21c4.4183 0 8-1.7909 8-4 0-.9766-.8403-1.532-1.0525-2.4114-.1197-.4958.0525-1.0774.0525-1.5886 0-1.1361-.2707-2.2091-.7511-3.15782 1.8766-1.62931 3.7511-4.23574 3.7511-6.84218-4.1526 0-6.2566 2.3492-6.9003 3.72194-1.9339-.9566-4.2655-.9566-6.19935 0-.6438-1.37274-2.74777-3.72194-6.90035-3.72194 0 2.60644 1.87445 5.21287 3.75106 6.84218-.48039.94872-.75106 2.02172-.75106 3.15782 0 .5112.17216 1.0928.05251 1.5886-.21221.8794-1.05251 1.4348-1.05251 2.4114 0 2.2091 3.58172 4 8 4z" stroke-width="1.5"/><path d="m11 16c.7925.6596 1.206.6737 2 0" stroke-linecap="round" stroke-width="1.5"/><path d="m9 12.5h-.00898" stroke-linecap="round" stroke-width="2"/><path d="m15.0078 12.5h-.009" stroke-linecap="round" stroke-width="2"/></g><path d="m17.75 16.6594c0-.8529.5864-1.6338 1.4969-1.9512l-.4938-1.4164c-1.4278.4978-2.5031 1.7908-2.5031 3.3676zm.9911 1.7073c-.6183-.3922-.9911-1.023-.9911-1.7073h-1.5c0 1.2565.6875 2.3395 1.6876 2.9739z" fill="#141b34"/><path d="m4.75309 14.7082c.91055.3174 1.49691 1.0983 1.49691 1.9512h1.5c0-1.5768-1.07527-2.8698-2.50309-3.3676zm1.49691 1.9512c0 .6843-.37276 1.3151-.99107 1.7073l.80346 1.2666c1.00015-.6344 1.68761-1.7174 1.68761-2.9739z" fill="#141b34"/></svg>